General

Format                           : Matroska
File size                        : 862 MiB
Duration                         : 1h 20mn[end credit cut]
Overall bit rate                 : 1 498 Kbps
Movie name                       : When a Stranger Calls  2006 BRRip 720p Dual Audio [Hin-Eng] by imkhan -=[TDT]=-
Encoded date                     : UTC 2011-08-06 15:51:00
Writing application              : mkvmerge v4.7.0 ('Just Like You Imagined') built on Apr 21 2011 01:13:14
Writing library                  : libebml v1.2.0 + libmatroska v1.1.0

Video
ID                               : 1
Format                           : AVC
Format/Info                      : Advanced Video Codec
Format profile                   : [email="High@L4.0"]High@L4.0[/email]
Format settings, CABAC           : Yes
Format settings, ReFrames        : 3 frames
Muxing mode                      : Container [email="profile=Unknown@4.0"]profile=Unknown@4.0[/email]
Codec ID                         : V_MPEG4/ISO/AVC
Duration                         : 1h 20mn
Bit rate                         : 1 276 Kbps
Width                            : 1 280 pixels
Height                           : 532 pixels
Display aspect ratio             : 2.40:1
Frame rate                       : 25.000 fps
Resolution                       : 24 bits
Colorimetry                      : 4:2:0
Scan type                        : Progressive
Bits/(Pixel*Frame)               : 0.075
Stream size                      : 735 MiB (85%)
Title                            : imkhan
Language                         : Hindi

Audio #1
ID                               : 2
Format                           : MPEG Audio
Format version                   : Version 1
Format profile                   : Layer 3
Codec ID                         : A_MPEG/L3
Codec ID/Hint                    : MP3
Duration                         : 1h 20mn
Bit rate mode                    : Constant
Bit rate                         : 96.0 Kbps
Channel(s)                       : 2 channels
Sampling rate                    : 44.1 KHz
Resolution                       : 16 bits
Stream size                      : 55.3 MiB (6%)
Title                            : imkhan
Language                         : Hindi

Audio #2
ID                               : 3
Format                           : MPEG Audio
Format version                   : Version 1
Format profile                   : Layer 3
Codec ID                         : A_MPEG/L3
Codec ID/Hint                    : MP3
Duration                         : 1h 20mn
Bit rate mode                    : Constant
Bit rate                         : 96.0 Kbps
Channel(s)                       : 2 channels
Sampling rate                    : 44.1 KHz
Resolution                       : 16 bits
Stream size                      : 55.3 MiB (6%)

Credits to IMKHAN.

Sample Added.

Screens: 
http://leetleech.org/images/08633361598257535287.jpg 
http://leetleech.org/images/35971540902410356728.jpg 
http://leetleech.org/images/01820249509305635228.jpg 
http://leetleech.org/images/95283553317985000516.jpg 
http://leetleech.org/images/26195574747591659046.jpg 
http://leetleech.org/images/97662384634640212470.jpg 
http://leetleech.org/images/22041866377442101359.jpg 
http://leetleech.org/images/85575329531097444690.jpg 
http://leetleech.org/images/93271694452951562370.jpg

 ~ Seed 4 others,Others would seed 4 u ~
         Be a Gentleman!!

    ______            ______   _______    
   (  __  \ |\     /|(  __  \ (  ____ \   
   | (  \  )| )   ( || (  \  )| (    \/   
   | |   ) || |   | || |   ) || (__       
   | |   | || |   | || |   | ||  __)      
   | |   ) || |   | || |   ) || (         
 _ | (__/  )| (___) || (__/  )| (____/\ _ 
(_)(______/ (_______)(______/ (_______/(_)


A simple THANKS goes a long way... :-)
Any comments would b appreciated.